{"title":"The.Lord.Of.The.Rings.[1978].DvdRip.XviD-KnÃƒÂ£.avi The Animated m","uid":6558131,"size":2141868032,"categoryP":"video","categoryS":"movies","magnet":"?xt=urn:btih:ca6ae981190f811b789445625e9bd6805d06d316&amp;dn=The.Lord.Of.The.Rings.%5B1978%5D.DvdRip.XviD-Kn%C3%83%C2%A3.avi+The+Animated+m&amp;tr=udp%3A%2F%2Ftracker.openbittorrent.com%3A80&amp;tr=udp%3A%2F%2Fopen.demonii.com%3A1337&amp;tr=udp%3A%2F%2Ftracker.coppersurfer.tk%3A6969&amp;tr=udp%3A%2F%2Fexodus.desync.com%3A6969","seeders":0,"leechers":1,"uploader":"Jon.Pson","files":1,"time":1311357217,"description":"The Fellowship of the Ring embark on a journey to destroy the One Ring and end Sauron's reign over Middle Earth. \n\nGeneral\nComplete name                    : Z:\\Movies-II\\The.Lord.Of.The.Rings.[1978].DvdRip.XviD-KnÃƒÂ£\\The.Lord.Of.The.Rings.[1978].DvdRip.XviD-KnÃƒÂ£.avi\nFormat                           : AVI\nFormat/Info                      : Audio Video Interleave\nFormat profile                   : OpenDML\nFile size                        : 1.99 GiB\nDuration                         : 2h 8mn\nOverall bit rate                 : 2 227 Kbps\nWriting application              : VirtualDubMod 1.5.4.1 (build 2178/release)\nWriting library                  : VirtualDubMod build 2178/release\n\nVideo\nID                               : 0\nFormat                           : MPEG-4 Visual\nFormat profile                   : Advanced Simple@L5\nFormat settings, BVOP            : 1\nFormat settings, QPel            : No\nFormat settings, GMC             : No warppoints\nFormat settings, Matrix          : Custom\nCodec ID                         : XVID\nCodec ID/Hint                    : XviD\nDuration                         : 2h 8mn\nBit rate                         : 2 026 Kbps\nWidth                            : 720 pixels\nHeight                           : 416 pixels\nDisplay aspect ratio             : 16:9\nFrame rate                       : 25.000 fps\nColor space                      : YUV\nChroma subsampling               : 4:2:0\nBit depth                        : 8 bits\nScan type                        : Progressive\nCompression mode                 : Lossy\nBits/(Pixel*Frame)               : 0.271\nStream size                      : 1.81 GiB (91%)\nWriting library                  : XviD 1.2.1 (UTC 2008-12-04)\n\nAudio\nID                               : 1\nFormat                           : AC-3\nFormat/Info                      : Audio Coding 3\nFormat profile                   : Dolby Digital\nMode extension                   : CM (complete main)\nCodec ID                         : 2000\nDuration                         : 2h 8mn\nBit rate mode                    : Constant\nBit rate                         : 192 Kbps\nChannel(s)                       : 2 channels\nChannel positions                : Front: L R\nSampling rate                    : 48.0 KHz\nBit depth                        : 16 bits\nCompression mode                 : Lossy\nStream size                      : 176 MiB (9%)\nAlignment                        : Split accross interleaves\nInterleave, duration             : 96 ms (2.40 video frames)\nInterleave, preload duration     : 96 ms\nLanguage                         : English\n\n","torrent":{"xt":"urn:btih:ca6ae981190f811b789445625e9bd6805d06d316","amp;dn":"The.Lord.Of.The.Rings.%5B1978%5D.DvdRip.XviD-Kn%C3%83%C2%A3.avi+The+Animated+m","amp;tr":["udp%3A%2F%2Ftracker.openbittorrent.com%3A80","udp%3A%2F%2Fopen.demonii.com%3A1337","udp%3A%2F%2Ftracker.coppersurfer.tk%3A6969","udp%3A%2F%2Fexodus.desync.com%3A6969"],"infoHash":"ca6ae981190f811b789445625e9bd6805d06d316","infoHashBuffer":{"type":"Buffer","data":[202,106,233,129,25,15,129,27,120,148,69,98,94,155,214,128,93,6,211,22]},"announce":[],"urlList":[]}}